<svg width="252" height="100" viewBox="0 0 252 100" fill="none" xmlns="http://www.w3.org/2000/svg">
<rect width="252" height="100" rx="5" fill="#C02030"/>
<path d="M167.304 76.3916H85.1953V78.543H167.304V76.3916Z" fill="white"/>
<path d="M167.304 55.5947H85.1953V57.7462H167.304V55.5947Z" fill="white"/>
<path d="M172.531 79.9771H79.9727V82.1285H172.531V79.9771Z" fill="white"/>
<path d="M178.501 83.563H74V85.7144H178.501V83.563Z" fill="white"/>
<path d="M148.646 31.2114H146.406V53.4429H148.646V31.2114Z" fill="white"/>
<path d="M106.845 31.2114H104.605V53.4429H106.845V31.2114Z" fill="white"/>
<path d="M156.588 21.8887H160.738L151.086 29.0601H101.515L91.8789 21.8887H96.2381L102.523 26.1915H149.989L156.588 21.8887Z" fill="white"/>
<path d="M115.284 14.3873L104.535 24.7571H109.223L113.351 20.4543H139.401L143.596 24.7571H148.075L137.468 14H132.803L136.453 17.5857H116.299L119.762 14.1578L115.5 14.1291L115.284 14.3873Z" fill="white"/>
<path d="M111.324 52.0084H141.182V32.6455H111.324V52.0084ZM131.941 45.3103C132.239 44.6935 132.68 44.1198 132.754 43.4027H139.689V50.151L131.941 45.3103ZM130.373 45.6258C129.56 46.6298 128.35 47.3254 126.97 47.4832C126.761 47.5047 126.552 47.5191 126.343 47.5191C126.111 47.5191 125.88 47.5047 125.648 47.476C124.32 47.3039 123.148 46.637 122.349 45.676C122.073 45.3461 121.842 44.9804 121.662 44.5931C121.468 44.17 121.334 43.7182 121.267 43.2449C121.237 43.0369 121.222 42.8289 121.222 42.6138C121.222 42.3987 121.237 42.1907 121.267 41.9827C121.341 41.4018 121.528 40.8568 121.797 40.3548C121.998 39.9747 122.252 39.6233 122.551 39.3149C123.342 38.4831 124.424 37.9093 125.641 37.7516C125.865 37.7229 126.096 37.7085 126.335 37.7085C126.544 37.7085 126.761 37.7229 126.962 37.7444C128.231 37.895 129.358 38.4902 130.164 39.3651C130.455 39.6807 130.702 40.0321 130.903 40.4193C131.157 40.8998 131.329 41.4305 131.403 41.9899C131.433 42.1979 131.448 42.4058 131.448 42.621C131.448 42.8361 131.433 43.0513 131.403 43.2521L131.038 44.5429C130.866 44.923 130.642 45.2959 130.373 45.6258ZM120.759 39.652C120.364 40.3548 120.005 41.2512 119.916 41.9684H112.817V34.7109L120.759 39.652ZM112.817 43.4027H119.916C119.99 44.1198 120.296 44.7437 120.61 45.3748L112.817 50.151V43.4027ZM139.689 41.9684H132.754C132.665 41.2512 132.18 40.3978 131.799 39.7094L139.689 34.7109V41.9684ZM131.321 38.605C130.261 37.3787 128.492 36.6041 126.999 36.4392V34.0798H138.577L131.321 38.605ZM125.507 34.0798V36.4464C124.014 36.6185 122.386 37.3715 121.349 38.5548L114.228 34.0798H125.507ZM121.147 46.3214C122.192 47.6338 124.014 48.5876 125.507 48.7741V50.5741H114.228L121.147 46.3214ZM126.999 50.5741V48.7812C128.492 48.6091 130.455 47.6338 131.515 46.2712L138.569 50.5741H126.999Z" fill="white"/>
<path d="M85.1953 73.0783V61.1021H87.9198C88.6588 61.1021 89.2037 61.31 89.547 61.7331C89.8829 62.1634 90.0472 62.8949 90.0472 63.9204C90.0472 64.6878 89.9874 65.2615 89.868 65.6344C89.7187 66.1292 89.4202 66.5021 88.9723 66.7388C89.4351 66.8607 89.771 67.1691 89.9651 67.6567C90.1666 68.1444 90.2636 68.7683 90.2636 69.5285C90.2636 70.6042 90.1069 71.4433 89.7859 72.06C89.4202 72.7413 88.823 73.0855 87.987 73.0855H85.1953V73.0783ZM87.1659 63.1459V65.8424H87.5317C87.8078 65.8424 88.0019 65.7061 88.1064 65.4336C88.1811 65.2113 88.2184 64.8814 88.2184 64.4439C88.2184 63.9921 88.1736 63.6694 88.0915 63.4543C88.0094 63.2463 87.8452 63.1387 87.6063 63.1387H87.1659V63.1459ZM87.1659 67.793V71.0417H87.5765C87.8676 71.0417 88.0616 70.9341 88.1661 70.7261C88.2557 70.4966 88.3005 70.0592 88.3005 69.4066C88.3005 68.8831 88.2632 68.5101 88.196 68.2807C88.0915 67.9508 87.8974 67.793 87.6138 67.793H87.1659Z" fill="white"/>
<path d="M90.7734 73.0783L92.3559 61.1021H94.9684L96.5733 73.0783H94.5131L94.3265 70.9484H92.9456L92.744 73.0783H90.7734ZM93.1546 68.8185H94.1399L93.6771 62.9594L93.1546 68.8185Z" fill="white"/>
<path d="M96.8984 69.8081V64.3722C96.8984 63.2391 97.1373 62.3713 97.615 61.7689C98.0629 61.1952 98.675 60.9155 99.4363 60.9155C100.19 60.9155 100.802 61.2096 101.273 61.7976C101.735 62.3857 101.967 63.2391 101.967 64.3722V65.4766H99.9962V64.1283C99.9962 63.8415 99.9738 63.612 99.9364 63.4399C99.8469 63.1745 99.6827 63.0383 99.4363 63.0383C99.1975 63.0383 99.0332 63.1674 98.9437 63.4255C98.8914 63.6335 98.869 63.8702 98.869 64.1283V70.0448C98.869 70.4033 98.9138 70.683 98.9959 70.8838C99.078 71.0559 99.2273 71.142 99.4363 71.142C99.6677 71.142 99.8319 70.9986 99.929 70.7189C99.9812 70.5109 100.004 70.2886 100.004 70.0448V68.2878H101.974V69.8009C101.974 70.8623 101.743 71.7014 101.287 72.3181C100.832 72.9492 100.213 73.2647 99.4363 73.2647C98.66 73.2647 98.048 72.9564 97.5926 72.3324C97.1298 71.7229 96.8984 70.8766 96.8984 69.8081Z" fill="white"/>
<path d="M102.84 73.0783V61.1021H104.81V65.5914H105.945V61.1021H107.916V73.0783H105.945V67.9794H104.81V73.0783H102.84Z" fill="white"/>
<path d="M111.438 69.8081V64.3722C111.438 63.2391 111.676 62.3713 112.154 61.7689C112.602 61.1952 113.214 60.9155 113.975 60.9155C114.729 60.9155 115.319 61.1235 115.744 61.5323C116.259 62.0271 116.513 62.8016 116.513 63.8486V65.1825H114.64V63.9849C114.64 63.3538 114.431 63.0383 114.02 63.0383C113.811 63.0383 113.647 63.1745 113.52 63.4399C113.445 63.6622 113.408 63.8917 113.408 64.1283V70.0448C113.408 70.4033 113.453 70.683 113.535 70.8838C113.617 71.0559 113.766 71.142 113.975 71.142C114.393 71.142 114.602 70.8408 114.602 70.2384V68.6965H113.908V66.4806H116.513V73.0711H114.789V72.0958C114.423 72.8703 113.916 73.2576 113.251 73.2576C112.617 73.2576 112.139 72.9062 111.818 72.2105C111.564 71.644 111.438 70.8408 111.438 69.8081Z" fill="white"/>
<path d="M119.424 61.1021H117.453V73.0783H119.424V61.1021Z" fill="white"/>
<path d="M119.996 73.0783L121.579 61.1021H124.191L125.796 73.0783H123.736L123.549 70.9484H122.168L121.967 73.0783H119.996ZM122.37 68.8185H123.355L122.892 62.9594L122.37 68.8185Z" fill="white"/>
<path d="M128.637 63.4184V61.1021H133.153V63.4184H131.876V73.0783H129.906V63.4184H128.637Z" fill="white"/>
<path d="M133.707 73.0783V61.1021H136.312C137.193 61.1021 137.827 61.3172 138.216 61.7475C138.611 62.1849 138.805 62.9308 138.805 63.9993C138.805 64.7667 138.738 65.3404 138.611 65.7348C138.439 66.2153 138.111 66.5667 137.618 66.7746C137.977 66.8607 138.253 67.083 138.447 67.4488C138.656 67.7858 138.76 68.2089 138.76 68.7109V70.8265V71.6727V72.0026C138.76 72.1174 138.768 72.2321 138.783 72.3469C138.783 72.6409 138.843 72.8847 138.962 73.0855H137.014C136.954 72.9851 136.894 72.7485 136.842 72.3755C136.812 72.06 136.797 71.7588 136.797 71.4791C136.79 71.1994 136.79 70.9771 136.79 70.8193V68.8974C136.79 68.5675 136.73 68.3237 136.618 68.1516C136.506 67.9938 136.312 67.9077 136.043 67.9077H135.678V73.0783H133.707ZM135.678 63.1459V65.8782H136.155C136.439 65.8782 136.641 65.742 136.745 65.4694L136.805 65.1109L136.827 64.4655C136.827 63.9993 136.797 63.6694 136.73 63.4901C136.626 63.2607 136.402 63.1459 136.058 63.1459H135.678Z" fill="white"/>
<path d="M138.898 73.0783L140.481 61.1021H143.093L144.698 73.0783H142.638L142.451 70.9484H141.071L140.869 73.0783H138.898ZM141.28 68.8185H142.265L141.802 62.9594L141.28 68.8185Z" fill="white"/>
<path d="M145.27 73.0783V61.1021H148.375L148.935 67.04L149.509 61.1021H152.607V73.0783H150.711V63.777L149.584 73.0783H148.3L147.195 63.777L147.173 73.0783H145.27Z" fill="white"/>
<path d="M156.191 73.0783V61.1021H158.162V65.5914H159.297V61.1021H161.267V73.0783H159.297V67.9794H158.162V73.0783H156.191Z" fill="white"/>
<path d="M162.141 69.8081V64.3722C162.141 63.2391 162.379 62.3713 162.857 61.7689C163.305 61.2024 163.917 60.9155 164.679 60.9155C165.432 60.9155 166.044 61.2096 166.515 61.7976C166.978 62.3857 167.209 63.2391 167.209 64.3722V69.8081C167.209 70.8695 166.978 71.7085 166.522 72.3253C166.067 72.9564 165.447 73.2719 164.671 73.2719C163.895 73.2719 163.283 72.9635 162.827 72.3396C162.372 71.7229 162.141 70.8766 162.141 69.8081ZM164.111 64.1283V70.0448C164.111 70.4033 164.156 70.683 164.238 70.8838C164.32 71.0559 164.47 71.142 164.679 71.142C164.91 71.142 165.074 70.9986 165.171 70.7189C165.223 70.5109 165.246 70.2886 165.246 70.0448V64.1283C165.246 63.8415 165.223 63.612 165.186 63.4399C165.097 63.1745 164.932 63.0383 164.686 63.0383C164.447 63.0383 164.283 63.1674 164.193 63.4255C164.134 63.6407 164.111 63.8702 164.111 64.1283Z" fill="white"/>
</svg>
