<svg width="252" height="100" viewBox="0 0 252 100" fill="none" xmlns="http://www.w3.org/2000/svg">
<rect width="252" height="100" rx="5" fill="#173E4A"/>
<path d="M126.492 35.1831L132.783 41.2271L139.076 35.1831L132.783 29.1367L126.492 35.1831Z" fill="#02A4AE"/>
<path d="M151.662 35.1831L145.371 29.1367L139.078 35.1831L145.371 41.2271L139.078 47.2735L145.371 53.3198L151.662 47.2735L157.956 41.2271L151.662 35.1831Z" fill="#02A4AE"/>
<path d="M132.783 65.4102L139.076 59.3639L132.783 53.3198L126.492 59.3639V71.4566L132.783 65.4102Z" fill="#02A4AE"/>
<path d="M139.076 23.0904L132.783 17.0464L126.492 11V23.0904L132.783 29.1368L139.076 23.0904Z" fill="#02A4AE"/>
<path d="M107.616 41.2272L113.909 35.1808L107.616 29.1344L95.0312 41.2249L107.616 53.3153L113.909 47.2689L107.616 41.2272ZM120.2 17.0464L113.907 23.0927L120.2 29.1391L126.493 23.0927V11L120.2 17.0464ZM113.907 59.3639L120.2 65.4103L126.493 71.4566V59.3662L120.2 53.3199L113.907 59.3639Z" fill="url(#paint0_linear_1748:238)"/>
<path d="M69.2958 80.0278C73.2884 80.0278 75.2931 81.4845 75.5506 84.2614H72.9322C72.6891 82.7077 71.4449 82.1019 69.2982 82.1019C66.6798 82.1019 65.5775 82.9967 65.5775 84.962C65.5775 86.9413 66.6942 87.8499 69.2982 87.8499C71.4305 87.8499 72.6891 87.2303 72.9322 85.6649H75.5506C75.2931 88.4557 73.2884 89.9263 69.2958 89.9263C64.8892 89.9263 63 88.1667 63 84.9643C63 81.7735 64.8892 80.0278 69.2958 80.0278Z" fill="white"/>
<path d="M76.3398 84.9639C76.3398 81.7754 78.2291 80.0273 82.6356 80.0273C87.0277 80.0273 88.9314 81.7869 88.9314 84.9639C88.9314 88.1547 87.0277 89.9281 82.6356 89.9281C78.2266 89.9258 76.3398 88.1662 76.3398 84.9639ZM86.3563 84.9639C86.3563 83.0124 85.3262 82.1037 82.6356 82.1037C79.945 82.1037 78.9149 82.9985 78.9149 84.9639C78.9149 86.9431 79.9594 87.8518 82.6356 87.8518C85.3118 87.8495 86.3563 86.9292 86.3563 84.9639Z" fill="white"/>
<path d="M99.3936 86.9296L101.239 89.7898H98.2047L96.5874 87.2187H92.4384V89.7898H89.8633V80.1665H97.733C100.01 80.1665 101.569 81.5561 101.569 83.6995C101.569 85.2649 100.739 86.421 99.3936 86.9296ZM92.4384 85.1423H97.0182C97.7908 85.1423 98.9941 85.1423 98.9941 83.6995C98.9941 82.2428 97.7908 82.2428 97.0182 82.2428H92.4384V85.1423Z" fill="white"/>
<path d="M104.985 82.1312V84.0827H112.999V85.87H104.985V87.8215H112.999V89.7869H102.41V80.1636H112.999V82.1289H104.985V82.1312Z" fill="white"/>
<path d="M127.439 80.1636L122.287 89.7869H118.766L113.613 80.1636H116.504L120.525 87.9603L124.547 80.1636H127.439Z" fill="white"/>
<path d="M130.63 82.1312V84.0827H138.644V85.87H130.63V87.8215H138.644V89.7869H128.055V80.1636H138.644V82.1289H130.63V82.1312Z" fill="white"/>
<path d="M142.002 86.476C142.002 87.4934 142.862 87.9604 146.125 87.9604C148.83 87.9604 149.646 87.6714 149.646 86.9153C149.646 86.1176 149.073 85.9812 145.824 85.8286C141.458 85.6367 139.728 84.9754 139.728 82.8181C139.728 80.7002 141.976 80.0273 145.725 80.0273C149.504 80.0273 151.793 80.9337 151.793 83.313H149.217C149.217 82.254 148.115 81.9927 145.439 81.9927C142.907 81.9927 142.306 82.2262 142.306 82.9407C142.306 83.6829 142.907 83.8216 145.827 83.9858C149.776 84.1916 152.223 84.3974 152.223 86.8321C152.223 89.4032 149.692 89.9258 145.983 89.9258C141.875 89.9258 139.43 89.253 139.43 86.4737H142.002V86.476Z" fill="white"/>
<path d="M164.526 82.2399H159.66V89.7892H157.085V82.2399H152.219V80.1636H164.526V82.2399Z" fill="white"/>
<path d="M164.758 84.9639C164.758 81.7754 166.647 80.0273 171.054 80.0273C175.446 80.0273 177.349 81.7869 177.349 84.9639C177.349 88.1547 175.446 89.9281 171.054 89.9281C166.647 89.9258 164.758 88.1662 164.758 84.9639ZM174.777 84.9639C174.777 83.0124 173.747 82.1037 171.056 82.1037C168.365 82.1037 167.335 82.9985 167.335 84.9639C167.335 86.9431 168.38 87.8518 171.056 87.8518C173.73 87.8495 174.777 86.9292 174.777 84.9639Z" fill="white"/>
<path d="M187.808 86.9296L189.654 89.7898H186.619L185.001 87.2187H180.852V89.7898H178.277V80.1665H186.147C188.424 80.1665 189.983 81.5561 189.983 83.6995C189.983 85.2649 189.153 86.421 187.808 86.9296ZM180.852 85.1423H185.432C186.205 85.1423 187.408 85.1423 187.408 83.6995C187.408 82.2428 186.205 82.2428 185.432 82.2428H180.852V85.1423Z" fill="white"/>
<defs>
<linearGradient id="paint0_linear_1748:238" x1="107.477" y1="9.49414" x2="118.731" y2="71.1915" gradientUnits="userSpaceOnUse">
<stop stop-color="#02A4AE"/>
<stop offset="1" stop-color="#173E4A"/>
</linearGradient>
</defs>
</svg>
