<svg width="252" height="100" viewBox="0 0 252 100" fill="none" xmlns="http://www.w3.org/2000/svg">
<rect width="252" height="100" rx="5" fill="white"/>
<path d="M81.9531 49.4072C81.9531 49.4223 81.9691 49.4374 81.9691 49.4525C81.9531 49.4223 81.9531 49.4072 81.9531 49.4072Z" fill="#41C1D1"/>
<path d="M81.2307 43.6296C81.3429 43.4756 81.4552 43.3369 81.5675 43.1674L84.6464 38.6841L80.6374 42.4741C77.3179 45.6017 73.7739 48.4981 70.0055 51.1018C66.237 53.721 62.26 56.0474 58.1388 58.1427C56.0701 59.1749 53.9854 60.161 51.8526 61.07C49.7359 61.9944 47.571 62.8417 45.3901 63.6275C41.0283 65.1989 36.5703 66.5855 32 67.5562C32.4169 67.4945 32.8178 67.4329 33.2348 67.3713C32.8018 67.4329 32.4009 67.5099 32 67.5562C37.7409 67.741 42.2951 69.9442 42.2951 69.9442C43.5941 70.7607 44.9732 71.454 46.4325 72.0395C49.4953 73.272 52.8148 73.8883 56.3588 73.8729C59.8546 73.8575 63.1581 73.2258 66.237 71.9471C69.3159 70.6837 72.042 68.9274 74.3833 66.678C76.7246 64.4286 78.5687 61.8249 79.8997 58.8514C81.2307 55.8779 81.8882 52.7041 81.8721 49.3455C81.8721 48.2208 81.792 47.1269 81.6316 46.0639C81.5675 45.2781 81.4231 44.4308 81.2307 43.6296ZM72.042 59.2212C71.3204 60.3304 70.5026 61.3627 69.5564 62.3025C67.8727 63.9664 65.9163 65.276 63.6872 66.2312C61.4582 67.1864 59.0208 67.6794 56.3908 67.6794C53.7609 67.6794 51.3234 67.2172 49.0944 66.262C47.8276 65.7228 46.673 65.0603 45.5665 64.3054C45.5825 64.3054 45.6146 64.2899 45.6306 64.2899C50.0887 62.8725 54.4344 61.1162 58.6359 59.0825C58.7963 59.0055 58.9406 58.9284 59.1009 58.8514C59.3415 58.759 59.5981 58.6665 59.8386 58.5587C61.0092 58.0348 62.1959 57.5418 63.3505 56.9872C64.024 56.6637 64.6975 56.3247 65.371 55.9858C65.788 55.8317 66.2209 55.6776 66.67 55.5236C68.4179 54.9997 70.262 54.63 71.4968 54.8765C72.2826 55.0305 72.8278 55.4311 72.924 56.2169C73.0202 56.9102 72.7637 57.8808 72.042 59.2212Z" fill="#39C1D7"/>
<path d="M47.9234 37.1121C46.9292 40.6556 46.0312 44.23 45.2294 47.8043L44.8766 49.3296L46.4802 49.2371C48.2121 49.1293 49.944 49.0215 51.6759 48.8828L52.1409 48.852L52.4135 48.5747C53.1832 47.7581 53.953 46.9107 54.7067 46.0788C55.4764 45.2468 56.2301 44.3995 56.9517 43.5367C57.7054 42.6893 58.427 41.8111 59.1487 40.9484C59.8703 40.0702 60.5759 39.192 61.2494 38.2676C60.3193 38.9455 59.4213 39.6542 58.5393 40.3783C57.6573 41.1024 56.7753 41.8265 55.9094 42.5661C55.0434 43.3056 54.1775 44.0451 53.3436 44.8154C52.6059 45.4625 51.8843 46.125 51.1627 46.7875C50.0883 46.8029 49.0139 46.8337 47.9555 46.8645L51.9966 31.7506C53.4238 31.3962 54.8991 31.196 56.4386 31.1805C57.3687 31.1651 58.2827 31.2268 59.1647 31.3346C60.7523 31.5349 62.2757 31.9355 63.751 32.5209C65.8357 33.3683 67.6638 34.5238 69.2514 36.0028C69.4117 36.1569 69.5881 36.2801 69.7485 36.4496C70.7107 37.4048 71.5445 38.4525 72.2822 39.5618L72.3784 39.5155C72.3784 39.5155 72.3463 39.5464 72.3143 39.608C72.3303 39.6234 72.3463 39.6542 72.3624 39.6696C72.2662 39.7621 72.186 39.8391 72.0898 39.9161C70.9191 41.4876 66.0602 47.3421 55.6368 52.6728C64.3123 50.0075 70.4861 46.5564 74.415 43.814C74.431 43.7986 74.4631 43.7832 74.4791 43.7678C77.8146 41.426 79.5305 39.6388 79.8191 39.3153C79.8352 39.2999 79.8512 39.2999 79.8672 39.2999C79.8672 39.2999 79.8672 39.2844 79.8512 39.2844L79.8672 39.269C79.8672 39.269 79.8512 39.2536 79.8352 39.2536C78.4881 36.5575 76.7081 34.154 74.4631 32.0587C72.0577 29.8094 69.2995 28.053 66.2045 26.8051C63.0935 25.5571 59.8222 24.9563 56.3584 25.0025C55.4764 25.0179 54.6105 25.0641 53.7605 25.1565L53.7766 25.0949L52.3654 25.326C52.3654 25.3106 52.3814 25.2798 52.3814 25.2798L50.7778 25.5879L49.96 28.9158L35.6719 26.6818L48.9337 33.091L47.9234 37.1121Z" fill="#FFC012"/>
<path d="M105.91 38.0978C104.932 37.158 103.81 36.4185 102.511 35.8793C101.212 35.34 99.8328 35.0781 98.3735 35.0781C97.0104 35.0781 95.7115 35.3092 94.4607 35.7714C93.2099 36.2336 92.1034 36.8961 91.1091 37.7589L89.0886 35.5249H87.6133V58.5579H93.723V45.3852C93.723 44.7843 93.8353 44.2143 94.0758 43.675C94.3163 43.1358 94.6371 42.6736 95.054 42.273C95.4709 41.8725 95.9681 41.5489 96.5293 41.3332C97.0906 41.1021 97.7 40.9943 98.3414 40.9943C98.9668 40.9943 99.5601 41.1021 100.105 41.3332C100.651 41.5643 101.148 41.8725 101.565 42.273C101.982 42.6736 102.318 43.1512 102.543 43.675C102.783 44.2143 102.896 44.7843 102.896 45.3852V58.5579H109.005V45.3852C109.005 43.9678 108.733 42.6274 108.172 41.3794C107.642 40.1315 106.873 39.0376 105.91 38.0978Z" fill="#39C1D7"/>
<path d="M119.537 35.5254H113.379V58.5583H119.537V35.5254Z" fill="#39C1D7"/>
<path d="M119.379 26.4965C119.01 26.1422 118.577 25.8649 118.064 25.6646C117.567 25.4643 117.038 25.3564 116.46 25.3564C115.899 25.3564 115.354 25.4643 114.857 25.6646C114.36 25.8803 113.927 26.1576 113.558 26.4965C113.189 26.8509 112.9 27.2669 112.692 27.7445C112.467 28.2221 112.371 28.7305 112.371 29.2697C112.371 29.809 112.483 30.3174 112.692 30.795C112.9 31.2726 113.205 31.6732 113.558 32.0275C113.927 32.3819 114.36 32.6592 114.857 32.8595C115.354 33.0598 115.883 33.1676 116.46 33.1676C117.022 33.1676 117.567 33.0598 118.064 32.8595C118.561 32.6438 118.994 32.3665 119.379 32.0275C119.748 31.6732 120.052 31.2572 120.261 30.795C120.485 30.3174 120.582 29.809 120.582 29.2697C120.582 28.7459 120.469 28.2375 120.261 27.7445C120.052 27.2669 119.764 26.8509 119.379 26.4965Z" fill="#FFC012"/>
<path d="M130.83 42.4584C131.375 41.8576 132.016 41.3954 132.754 41.0718C133.492 40.7483 134.277 40.5788 135.111 40.5788C135.705 40.5788 136.298 40.6712 136.859 40.8407C137.421 41.0102 137.95 41.2721 138.431 41.5956C138.912 41.9192 139.361 42.3352 139.746 42.8128C140.131 43.2904 140.435 43.8296 140.66 44.4305L145.134 40.1012C144.605 39.223 143.963 38.4527 143.226 37.7748C142.488 37.0969 141.686 36.5269 140.804 36.0647C139.938 35.6025 139.008 35.2481 138.046 35.0016C137.084 34.7551 136.106 34.6318 135.095 34.6318C133.412 34.6318 131.824 34.9554 130.333 35.6179C128.841 36.2803 127.542 37.1739 126.436 38.314C125.329 39.4541 124.447 40.7945 123.806 42.3198C123.164 43.8604 122.844 45.5089 122.844 47.2653C122.844 48.883 123.164 50.4083 123.806 51.8257C124.447 53.2431 125.329 54.491 126.436 55.5541C127.542 56.6171 128.841 57.4491 130.333 58.0654C131.824 58.6816 133.395 58.9744 135.095 58.9744C136.09 58.9744 137.068 58.8665 138.014 58.6354C138.96 58.4197 139.858 58.0808 140.724 57.6648C141.59 57.2334 142.376 56.7096 143.113 56.0933C143.851 55.477 144.508 54.7837 145.07 54.0134L140.596 49.6841C140.355 50.208 140.05 50.6702 139.666 51.1015C139.281 51.5175 138.848 51.8873 138.367 52.18C137.886 52.4727 137.356 52.7038 136.811 52.8579C136.266 53.012 135.689 53.089 135.095 53.089C134.261 53.089 133.476 52.9349 132.738 52.6422C132 52.3495 131.359 51.9181 130.814 51.3943C130.268 50.8705 129.835 50.2542 129.531 49.5455C129.21 48.8368 129.066 48.0973 129.066 47.2807C129.066 46.2947 129.226 45.3857 129.531 44.5691C129.868 43.768 130.284 43.0593 130.83 42.4584Z" fill="#39C1D7"/>
<path d="M167.38 37.9905C166.273 36.9274 164.974 36.0955 163.499 35.51C162.008 34.9246 160.42 34.6318 158.72 34.6318C157.037 34.6318 155.449 34.94 153.958 35.5562C152.466 36.1725 151.167 37.0199 150.061 38.0983C148.954 39.1768 148.072 40.471 147.431 41.9654C146.789 43.4598 146.469 45.0775 146.469 46.8339C146.469 48.5595 146.789 50.1617 147.431 51.6408C148.072 53.1198 148.954 54.414 150.061 55.4924C151.167 56.5709 152.466 57.4337 153.958 58.05C155.449 58.6816 157.037 58.9898 158.72 58.9898C160.42 58.9898 162.008 58.6816 163.499 58.05C164.99 57.4183 166.273 56.5709 167.38 55.4924C168.486 54.414 169.352 53.1198 169.994 51.6408C170.635 50.1617 170.956 48.5595 170.956 46.8339C170.956 45.0005 170.635 43.3366 169.994 41.8267C169.352 40.3477 168.47 39.0535 167.38 37.9905ZM164.317 49.4068C163.996 50.1772 163.563 50.8396 163.002 51.3789C162.457 51.9181 161.799 52.3495 161.062 52.6422C160.324 52.9503 159.538 53.089 158.704 53.089C157.87 53.089 157.085 52.9195 156.347 52.6114C155.609 52.2879 154.968 51.8411 154.423 51.2864C153.877 50.7318 153.444 50.0693 153.14 49.3144C152.819 48.5595 152.675 47.7275 152.675 46.8339C152.675 45.8941 152.835 45.0313 153.14 44.261C153.444 43.4907 153.877 42.8282 154.423 42.2889C154.968 41.7343 155.609 41.3183 156.347 41.0256C157.085 40.7329 157.87 40.5788 158.704 40.5788C159.538 40.5788 160.324 40.7329 161.062 41.0256C161.799 41.3183 162.441 41.7497 163.002 42.2889C163.547 42.8436 163.996 43.5061 164.317 44.261C164.638 45.0313 164.798 45.8787 164.798 46.8339C164.798 47.7737 164.638 48.6211 164.317 49.4068Z" fill="#39C1D7"/>
<path d="M181.183 36.2649C179.933 36.7271 178.81 37.3896 177.832 38.2524L175.811 35.5254H174.336V58.5583H180.446V45.8633C180.446 45.247 180.558 44.6615 180.798 44.1223C181.039 43.5831 181.36 43.1055 181.777 42.7049C182.194 42.3043 182.691 41.9808 183.252 41.7651C183.813 41.534 184.423 41.4261 185.064 41.4261H190.452V35.5716H185.064C183.733 35.5716 182.434 35.8027 181.183 36.2649Z" fill="#39C1D7"/>
<path d="M213.911 41.3802C213.349 40.1323 212.58 39.023 211.617 38.0832C210.639 37.1434 209.517 36.4039 208.218 35.8646C206.919 35.3254 205.54 35.0635 204.081 35.0635C202.717 35.0635 201.419 35.2946 200.168 35.7568C198.917 36.219 197.81 36.8815 196.816 37.7442L194.796 35.5103H193.32V58.5586H199.43V45.4013C199.43 44.8005 199.542 44.2304 199.783 43.6912C200.023 43.152 200.344 42.6898 200.761 42.2738C201.178 41.8732 201.675 41.5497 202.236 41.334C202.798 41.1183 203.407 40.995 204.048 40.995C204.674 40.995 205.267 41.1029 205.812 41.334C206.358 41.5651 206.855 41.8732 207.272 42.2738C207.689 42.6744 208.009 43.152 208.25 43.6912C208.49 44.2304 208.603 44.8005 208.603 45.4013V58.5586H214.712V45.4013C214.744 43.9839 214.472 42.6436 213.911 41.3802Z" fill="#39C1D7"/>
<path d="M191.06 66.4312V73.965H190.339V67.7715L187.452 73.965H187.132L184.245 67.7715V73.965H183.523V66.4312H184.325L187.292 72.7633L190.259 66.4312H191.06Z" fill="#4D4D4F"/>
<path d="M198.312 71.4681H193.325C193.389 72.6236 194.351 73.4863 195.522 73.4863C196.291 73.4863 196.981 73.1012 197.382 72.4849L197.943 72.716C197.446 73.5326 196.548 74.0564 195.522 74.0564C193.95 74.0564 192.699 72.8547 192.699 71.3602C192.699 69.8658 193.95 68.6641 195.506 68.6641C197.045 68.6641 198.264 69.8196 198.312 71.2986V71.4681ZM193.373 70.9442H197.638C197.446 69.9736 196.58 69.2649 195.522 69.2649C194.447 69.2649 193.581 69.9736 193.373 70.9442Z" fill="#4D4D4F"/>
<path d="M199.172 71.3608C199.172 69.8818 200.423 68.6646 201.914 68.6646C202.892 68.6646 203.694 69.1114 204.143 69.8047V66.4307H204.801V73.9645H204.143V72.9323C203.678 73.6102 202.876 74.0724 201.914 74.0724C200.423 74.057 199.172 72.8552 199.172 71.3608ZM204.143 71.3608C204.143 70.2207 203.197 69.2963 202.01 69.2963C200.872 69.2809 199.91 70.1591 199.845 71.2529C199.781 72.4547 200.759 73.4561 201.994 73.4561C203.197 73.4407 204.143 72.5163 204.143 71.3608Z" fill="#4D4D4F"/>
<path d="M206.504 66.8314C206.504 66.5541 206.744 66.3384 207.017 66.3384C207.29 66.3384 207.53 66.5541 207.53 66.8314C207.53 67.1087 207.29 67.3244 207.017 67.3244C206.744 67.3244 206.504 67.1087 206.504 66.8314ZM206.68 68.7726H207.338V73.9647H206.68V68.7726Z" fill="#4D4D4F"/>
<path d="M208.766 71.3602C208.766 69.8812 210.016 68.6641 211.508 68.6641C212.486 68.6641 213.288 69.1109 213.737 69.8042V68.7719H214.394V73.964H213.737V72.9317C213.272 73.6096 212.47 74.0718 211.508 74.0718C210.016 74.0564 208.766 72.8547 208.766 71.3602ZM213.737 71.3602C213.737 70.2201 212.775 69.2957 211.588 69.2957C210.401 69.2957 209.439 70.2201 209.439 71.3602C209.439 72.5003 210.401 73.4401 211.588 73.4401C212.775 73.4401 213.737 72.5157 213.737 71.3602Z" fill="#4D4D4F"/>
<path d="M217.023 33.1374H215.612V35.0632H215.195V30.4258H216.767C217.023 30.4258 217.248 30.4566 217.456 30.5182C217.665 30.5798 217.825 30.6723 217.97 30.7801C218.114 30.9034 218.226 31.042 218.29 31.2115C218.354 31.381 218.403 31.5813 218.403 31.797C218.403 31.951 218.37 32.0897 218.322 32.2284C218.274 32.367 218.21 32.4903 218.114 32.5981C218.018 32.706 217.921 32.7984 217.793 32.8754C217.665 32.9525 217.537 33.0141 217.392 33.0603L218.595 35.0324V35.0786H218.162L217.023 33.1374ZM215.628 32.7984H216.879C217.072 32.7984 217.232 32.7676 217.376 32.7214C217.521 32.6597 217.633 32.5981 217.729 32.5057C217.825 32.4132 217.889 32.3054 217.937 32.1821C217.986 32.0589 218.002 31.9356 218.002 31.797C218.002 31.6429 217.97 31.4888 217.921 31.3656C217.873 31.2423 217.793 31.1345 217.681 31.042C217.569 30.9496 217.44 30.888 217.296 30.8418C217.136 30.7955 216.975 30.7647 216.767 30.7647H215.612V32.7984H215.628Z" fill="#4D4D4F"/>
<path d="M216.765 36.727C214.424 36.727 212.531 34.909 212.531 32.6596C212.531 30.4103 214.424 28.5923 216.765 28.5923C219.106 28.5923 220.998 30.4103 220.998 32.6596C220.998 34.909 219.106 36.727 216.765 36.727ZM216.765 28.9775C214.648 28.9775 212.932 30.626 212.932 32.6596C212.932 34.6933 214.648 36.3418 216.765 36.3418C218.882 36.3418 220.597 34.6933 220.597 32.6596C220.597 30.626 218.882 28.9775 216.765 28.9775Z" fill="#4D4D4F"/>
</svg>
