<svg width="33" height="37" viewBox="0 0 33 37" fill="none" xmlns="http://www.w3.org/2000/svg">
<path d="M29.2941 12.3336H25.3013L23.7596 10.792H20.0442C19.2272 10.7944 18.4444 11.1201 17.8667 11.6978C17.289 12.2755 16.9634 13.0583 16.9609 13.8753V20.0419C16.9634 20.8589 17.289 21.6417 17.8667 22.2194C18.4444 22.7971 19.2272 23.1228 20.0442 23.1252H29.2941C30.1111 23.1228 30.894 22.7971 31.4717 22.2194C32.0494 21.6417 32.375 20.8589 32.3774 20.0419V15.4169C32.375 14.6 32.0494 13.8171 31.4717 13.2394C30.894 12.6617 30.1111 12.3361 29.2941 12.3336ZM29.2941 20.0419H20.0442V13.8753H23.1275L24.6692 15.4169H29.2941V20.0419Z" fill="#EC4C93"/>
<path d="M29.2941 26.2086H25.3013L23.7596 24.667H20.0442C19.2272 24.6694 18.4444 24.9951 17.8667 25.5728C17.289 26.1505 16.9634 26.9333 16.9609 27.7503V33.9169C16.9634 34.7339 17.289 35.5167 17.8667 36.0944C18.4444 36.6721 19.2272 36.9978 20.0442 37.0002H29.2941C30.1111 36.9978 30.894 36.6721 31.4717 36.0944C32.0494 35.5167 32.375 34.7339 32.3774 33.9169V29.2919C32.375 28.475 32.0494 27.6921 31.4717 27.1144C30.894 26.5367 30.1111 26.2111 29.2941 26.2086ZM29.2941 33.9169H20.0442V27.7503H23.1275L24.6692 29.2919H29.2941V33.9169Z" fill="#EC4C93"/>
<path d="M9.24736 29.2907V18.4991H16.9556V15.4158H9.24736V12.3325H6.16406V32.374H16.9556V29.2907H9.24736Z" fill="#EC4C93"/>
<path d="M12.3332 1.54165H8.34033L6.79868 0H3.0833C2.26631 0.00244001 1.48348 0.328071 0.905774 0.905774C0.328071 1.48348 0.00244001 2.26631 0 3.0833V9.24991C0.00244001 10.0669 0.328071 10.8497 0.905774 11.4274C1.48348 12.0051 2.26631 12.3308 3.0833 12.3332H12.3332C13.1502 12.3308 13.933 12.0051 14.5107 11.4274C15.0884 10.8497 15.4141 10.0669 15.4165 9.24991V4.62495C15.4141 3.80796 15.0884 3.02513 14.5107 2.44742C13.933 1.86972 13.1502 1.54409 12.3332 1.54165ZM12.3332 9.24991H3.0833V3.0833H6.1666L7.70825 4.62495H12.3332V9.24991Z" fill="#EC4C93"/>
</svg>
